<?xml version="1.0" encoding="UTF-8" standalone="no"?>
<!-- Generator: Adobe Illustrator 25.2.3, SVG Export Plug-In . SVG Version: 6.00 Build 0)  -->

<svg
   version="1.1"
   id="Layer_3_copy_2"
   x="0px"
   y="0px"
   viewBox="0 0 64 64"
   xml:space="preserve"
   sodipodi:docname="favicon.svg"
   width="64"
   height="64"
   inkscape:version="1.3.2 (091e20e, 2023-11-25)"
   xmlns:inkscape="http://www.inkscape.org/namespaces/inkscape"
   xmlns:sodipodi="http://sodipodi.sourceforge.net/DTD/sodipodi-0.dtd"
   xmlns="http://www.w3.org/2000/svg"
   xmlns:svg="http://www.w3.org/2000/svg"><defs
   id="defs7" /><sodipodi:namedview
   id="namedview7"
   pagecolor="#ffffff"
   bordercolor="#000000"
   borderopacity="0.25"
   inkscape:showpageshadow="2"
   inkscape:pageopacity="0.0"
   inkscape:pagecheckerboard="0"
   inkscape:deskcolor="#d1d1d1"
   inkscape:zoom="5.296875"
   inkscape:cx="64"
   inkscape:cy="64"
   inkscape:window-width="1392"
   inkscape:window-height="997"
   inkscape:window-x="0"
   inkscape:window-y="25"
   inkscape:window-maximized="0"
   inkscape:current-layer="Layer_3_copy_2" />
<g
   id="g7"
   transform="matrix(0.53813151,0,0,0.53812945,-2.4377378,-2.7482867)">
	<g
   id="g3">
		<path
   style="fill:#ffffff"
   d="M 117.64,102.31 H 10.36 c -2.74,0 -3.83,-1.71 -3.83,-3.83 V 29.52 c 0,-2.12 1.71,-3.83 3.83,-3.83 h 107.27 c 2.12,0 3.83,1.71 3.83,3.83 v 68.96 c 0.01,2.12 -1.71,3.83 -3.82,3.83 z"
   id="path1" />
		<path
   style="fill:#6fbff0;stroke:#6fbff0;stroke-width:0.5;stroke-miterlimit:10"
   d="M 89.03,57.56 119.4,29.44 c 0.61,-0.51 1.8,-0.78 1.8,-0.78 0,0 -1.39,-1.52 -3.22,-0.09 L 70.26,66.44 C 68.42,67.9 66.22,68.65 64,68.72 61.78,68.65 59.58,67.9 57.74,66.44 L 10.01,28.57 c -1.83,-1.43 -3.22,0.09 -3.22,0.09 0,0 1.19,0.28 1.8,0.78 L 38.62,57.47 7.81,99.57 c -0.53,0.59 0.92,1.55 1.59,0.9 l 33.66,-40.09 12.37,11.1 c 2.44,2.19 5.5,3.32 8.58,3.39 3.08,-0.07 6.13,-1.2 8.58,-3.39 l 12.29,-11.04 33,40.02 c 0.67,0.65 2.12,-0.31 1.59,-0.9 z"
   id="path2" />
		<path
   style="fill:none;stroke:#6fbff0;stroke-width:4;stroke-miterlimit:10"
   d="M 117.64,102.31 H 10.36 c -2.74,0 -3.83,-1.71 -3.83,-3.83 V 29.52 c 0,-2.12 1.71,-3.83 3.83,-3.83 h 107.27 c 2.12,0 3.83,1.71 3.83,3.83 v 68.96 c 0.01,2.12 -1.71,3.83 -3.82,3.83 z"
   id="path3" />
	</g>
	<g
   id="g6">
		<g
   id="g4">
			<path
   style="fill:#b71c1c"
   d="m 76.69,40.98 c -9.27,0 -12.67,10.95 -12.67,10.95 0,0 -3.36,-10.95 -12.7,-10.95 -7.02,0 -15.02,5.5 -12.06,17.98 2.96,12.49 24.78,28.05 24.78,28.05 0,0 21.75,-15.56 24.71,-28.05 C 91.7,46.48 83.71,40.98 76.69,40.98 Z"
   id="path4" />
		</g>
		<g
   id="g5">
			<path
   style="fill:#f44336"
   d="m 75.23,40.98 c -8.2,0 -11.21,9.8 -11.21,9.8 0,0 -2.97,-9.8 -11.23,-9.8 -6.21,0 -13.28,4.92 -10.67,16.1 2.61,11.18 21.92,25.11 21.92,25.11 0,0 19.24,-13.93 21.86,-25.11 2.6,-11.18 -4.47,-16.1 -10.67,-16.1 z"
   id="path5" />
		</g>
	</g>
</g>
</svg>
